# AST/ASF file generated using VICON BodyLanguage
# -----------------------------------------------
:version 1.10
:name VICON
:units
  mass 1.0
  length 0.45
  angle deg
:documentation
   .ast/.asf automatically generated from VICON data using
   VICON BodyBuilder and BodyLanguage model FoxedUp or BRILLIANT.MOD
:root
   order TX TY TZ RX RY RZ
   axis XYZ
   position 0 0 0  
   orientation 0 0 0 
:bonedata
  begin
     id 1 
     name lhipjoint
     direction 0.566809 -0.746272 0.349008 
     length 2.40479 
     axis 0 0 0  XYZ
  end
  begin
     id 2 
     name lfemur
     direction 0.34202 -0.939693 0  
     length 7.1578  
     axis 0 0 20  XYZ
    dof rx ry rz
    limits (-160.0 20.0)
           (-70.0 70.0)
           (-60.0 70.0)
  end
  begin
     id 3 
     name ltibia
     direction 0.34202 -0.939693 0   
     length 7.49137   
     axis 0 0 20   XYZ
    dof rx
    limits (-10.0 170.0)
  end
  begin
     id 4 
     name lfoot
     direction 0.0665746 -0.182912 0.980873   
     length 2.36784   
     axis -90 7.62852e-016 20   XYZ
    dof rx rz
    limits (-45.0 90.0)
           (-70.0 20.0)
  end
  begin
     id 5 
     name ltoes
     direction 1.53601e-011 -4.22058e-011 1   
     length 1.18966   
     axis -90 7.62852e-016 20   XYZ
    dof rx
    limits (-90.0 20.0)
  end
  begin
     id 6 
     name rhipjoint
     direction -0.550236 -0.756381 0.353735   
     length 2.37265  
     axis 0 0 0  XYZ 
  end
  begin
     id 7 
     name rfemur
     direction -0.34202 -0.939693 0   
     length 7.43386   
     axis 0 0 -20   XYZ
    dof rx ry rz
    limits (-160.0 20.0)
           (-70.0 70.0)
           (-70.0 60.0)
  end
  begin
     id 8 
     name rtibia
     direction -0.34202 -0.939693 0   
     length 7.50908   
     axis 0 0 -20   XYZ
    dof rx
    limits (-10.0 170.0)
 end
 begin
     id 9 
     name rfoot
     direction -0.0683029 -0.187661 0.979856   
     length 2.41173  
     axis -90 -7.62852e-016 -20   XYZ
    dof rx rz
    limits (-45.0 90.0)
           (-20.0 70.0)
  end
  begin
     id 10 
     name rtoes
     direction -1.53528e-011 -4.21968e-011 1   
     length 1.21082   
     axis -90 -7.62852e-016 -20   XYZ
    dof rx
    limits (-90.0 20.0)
  end
  begin
     id 11 
     name lowerback
     direction 0.013823 0.995423 -0.0945635   
     length 2.04495   
     axis 0 0 0   XYZ
    dof rx ry rz
    limits (-20.0 45.0)
           (-30.0 30.0)
           (-30.0 30.0)
  end
  begin
     id 12 
     name upperback
     direction 0.0276657 0.9994 -0.020853   
     length 2.05008   
     axis 0 0 0   XYZ
    dof rx ry rz
    limits (-20.0 45.0)
           (-30.0 30.0)
           (-30.0 30.0)
  end
  begin
     id 13 
     name thorax
     direction 0.019782 0.999531 0.0233827   
     length 2.06488   
     axis 0 0 0   XYZ
    dof rx ry rz
    limits (-20.0 45.0)
           (-30.0 30.0)
           (-30.0 30.0)
  end
  begin
     id 14 
     name lowerneck
     direction -0.0308541 0.994709 0.0979874   
     length 1.75553   
     axis 0 0 0   XYZ
    dof rx ry rz
    limits (-20.0 45.0)
           (-30.0 30.0)
           (-30.0 30.0)
  end
  begin
     id 15 
     name upperneck
     direction 0.0588398 0.995804 -0.0700903   
     length 1.76878   
     axis 0 0 0   XYZ
    dof rx ry rz
    limits (-20.0 45.0)
           (-30.0 30.0)
           (-30.0 30.0)
  end
  begin
     id 16
     name head
     direction 0.0209966 0.999159 -0.0352225  
     length 1.77193  
     axis 0 0 0   XYZ
    dof rx ry rz
    limits (-20.0 45.0)
           (-30.0 30.0)
           (-30.0 30.0)
  end
  begin
     id 17 
     name lclavicle
     direction 0.938182 0.335073 -0.0868338  
     length 3.58396  
     axis 0 0 0   XYZ
    dof ry rz
    limits (-20.0 10.0)
           (0.0 20.0)
  end
  begin
     id 18 
     name lhumerus
     direction 1 -4.48971e-011 -1.26313e-017   
     length 4.983   
     axis 180 -30 -90   XYZ
    dof rx ry rz
    limits (-60.0 90.0)
           (-90.0 90.0)
           (-90.0 90.0)
  end
  begin
     id 19
     name lradius
     direction 1 -4.48948e-011 -5.89033e-027   
     length 3.48356   
     axis 180 -30 -90   XYZ
    dof rx
    limits (-10.0 170.0)
  end
  begin
     id 20
     name lwrist
     direction 1 -4.48977e-011 -1.48983e-026   
     length 1.74178   
     axis 9.0955e-015 90 90   XYZ
    dof ry
    limits (-180.0 0.0)
 end
  begin
     id 21 
     name lhand
     direction 1 -4.49046e-011 -2.98066e-026   
     length 0.715259   
     axis 1.90115e-014 90 90   XYZ
    dof rx rz
    limits (-90.0 90.0)
           (-45.0 45.0)
  end
  begin
     id 22 
     name lfingers
     direction 1 -4.48907e-011 -5.95731e-026   
     length 0.576661   
     axis 3.80223e-014 90 90   XYZ
    dof rx
    limits (0.0 90.0)
  end
  begin
     id 23
     name lthumb
     direction 0.707107 -6.34963e-011 0.707107   
     length 0.827973   
     axis -90 45 -3.84942e-014   XYZ
    dof rx rz
    limits (-45.0 45.0)
           (-45.0 45.0)
  end
  begin
     id 24 
     name rclavicle
     direction -0.909637 0.398485 -0.11735   
     length 3.44819  
     axis 0 0 0   XYZ 
    dof ry rz
    limits (-10.0 20.0)
           (-20.0 0.0)
  end
  begin
     id 25 
     name rhumerus
     direction -1 -4.48978e-011 -1.09333e-027  
     length 5.2419   
     axis 180 30 90   XYZ
    dof rx ry rz
    limits (-90.0 60.0)
           (-90.0 90.0)
           (-90.0 90.0)
  end
  begin
     id 26 
     name rradius
     direction -1 -4.48953e-011 -7.61841e-027   
     length 3.44417   
     axis 180 30 90   XYZ
    dof rx
    limits (-10.0 170.0)
  end
  begin
     id 27 
     name rwrist
     direction -1 -4.48977e-011 -1.48983e-026   
     length 1.72209   
     axis 9.0955e-015 -90 -90   XYZ
    dof ry
    limits (-180.0 0.0)
  end
  begin
     id 28
     name rhand
     direction -1 -4.49027e-011 -2.98038e-026   
     length 0.622529   
     axis 1.90115e-014 -90 -90   XYZ
    dof rx rz
    limits (-90.0 90.0)
           (-45.0 45.0)
  end
  begin
     id 29
     name rfingers
     direction -1 -4.48838e-011 -5.95531e-026   
     length 0.501899   
     axis 3.80223e-014 -90 -90   XYZ
    dof rx
    limits (0.0 90.0)
  end
  begin
     id 30
     name rthumb
     direction -0.707107 -6.34937e-011 0.707107   
     length 0.720629   
     axis -90 -45 3.84942e-014   XYZ
    dof rx rz
    limits (-45.0 45.0)
           (-45.0 45.0)
  end
:hierarchy
  begin
    root lhipjoint rhipjoint lowerback
    lhipjoint lfemur
    lfemur ltibia
    ltibia lfoot
    lfoot ltoes
    rhipjoint rfemur
    rfemur rtibia
    rtibia rfoot
    rfoot rtoes
    lowerback upperback
    upperback thorax
    thorax lowerneck lclavicle rclavicle
    lowerneck upperneck
    upperneck head
    lclavicle lhumerus
    lhumerus lradius
    lradius lwrist
    lwrist lhand lthumb
    lhand lfingers
    rclavicle rhumerus
    rhumerus rradius
    rradius rwrist
    rwrist rhand rthumb
    rhand rfingers
  end

#!OML:ASF H:\Terrain\Patient Classification 1\PLAYGROUND\JustinFriday\JustinFriday.ASF
:FULLY-SPECIFIED
:DEGREES
245
root -14.6041 17.0982 11.7362 202.146 -68.5243 -199.526
lowerback 9.31563 -1.25617 -9.58869
upperback 3.53331 -2.70716 -0.878463
thorax -1.12284 -1.49216 4.73247
lowerneck 4.23753 -10.9168 -14.7653
upperneck 18.4552 -17.43 9.61766
head 7.09619 -9.16528 4.34251
rclavicle 6.00997e-014 -9.65348e-015
rhumerus 4.39139 -29.0059 -32.7732
rradius 69.499
rwrist 14.381
rhand -23.3018 -27.2323
rfingers 7.12502
rthumb 3.1516 -57.1888
lclavicle 6.00997e-014 -9.65348e-015
lhumerus -19.179 3.12756 69.3545
lradius 40.6034
lwrist 6.28792
lhand -18.3347 -6.41353
lfingers 7.12502
lthumb 7.94727 23.4171
rfemur -38.2612 -7.56472 21.7408
rtibia 28.5803
rfoot -26.3938 -22.4498
rtoes 37.6612
lfemur 6.52759 11.9358 -24.0584
ltibia 18.2435
lfoot -19.6601 -12.8918
ltoes 8.82257
246
root -14.7511 17.0965 11.6591 203.13 -68.5698 -200.918
lowerback 9.63711 -1.31467 -9.79076
upperback 3.56087 -2.84681 -0.931151
thorax -1.24199 -1.56095 4.81537
lowerneck 4.4384 -10.9978 -14.7129
upperneck 18.5434 -17.5907 9.54331
head 7.10131 -9.25557 4.30594
rclavicle 4.23163e-014 6.75868e-015
rhumerus 4.05819 -29.6176 -32.5763
rradius 69.5285
rwrist 15.1308
rhand -23.3277 -26.3977
rfingers 7.12502
rthumb 3.1266 -56.3545
lclavicle 4.23163e-014 6.75868e-015
lhumerus -19.6038 2.85366 69.6416
lradius 40.9058
lwrist 5.01667
lhand -17.4556 -6.43753
lfingers 7.12502
lthumb 8.79575 23.3592
rfemur -37.8522 -8.28778 21.5038
rtibia 29.1412
rfoot -26.0647 -21.6472
rtoes 39.9114
lfemur 7.50234 11.9134 -24.1914
ltibia 18.1149
lfoot -18.8057 -13.4593
ltoes 10.3009
247
root -14.8912 17.1101 11.6476 203.849 -68.6065 -201.007
lowerback 9.23652 -1.56825 -8.77017
upperback 3.34503 -3.03861 -0.917646
thorax -1.27686 -1.63262 4.26558
lowerneck 4.31469 -11.0419 -15.4618
upperneck 18.795 -17.7677 9.97344
head 7.33798 -9.36251 4.51628
rclavicle 3.95085e-015 -9.0447e-015
rhumerus 3.92011 -30.2913 -32.4898
rradius 69.8938
rwrist 15.6287
rhand -23.3935 -25.7432
rfingers 7.12502
rthumb 3.06313 -55.701
lclavicle 3.95085e-015 -9.0447e-015
lhumerus -20.0023 2.89461 70.1875
lradius 41.2494
lwrist 4.22831
lhand -16.2723 -6.7936
lfingers 7.12502
lthumb 9.93745 22.9518
rfemur -38.751 -10.2745 22.3358
rtibia 29.4928
rfoot -24.1462 -20.2722
rtoes 41.7715
lfemur 6.96065 10.8482 -24.7126
ltibia 18.4308
lfoot -18.3618 -12.4055
ltoes 10.3627
248
root -15.0299 17.1142 11.5807 202.109 -68.7399 -199.388
lowerback 9.49774 -1.64822 -7.99036
upperback 3.42635 -3.08742 -0.645437
thorax -1.35882 -1.65196 4.12939
lowerneck 4.04513 -11.1005 -16.4651
upperneck 19.2383 -18.0143 10.6012
head 7.72015 -9.50547 4.80678
rclavicle 1.2921e-015 6.75868e-015
rhumerus 3.67682 -30.7558 -32.6227
rradius 70.6206
rwrist 15.7125
rhand -22.9668 -25.4492
rfingers 7.12502
rthumb 3.4752 -55.4006
lclavicle 1.2921e-015 6.75868e-015
lhumerus -20.4697 2.59136 70.6324
lradius 41.702
lwrist 3.9791
lhand -15.0865 -8.27235
lfingers 7.12502
lthumb 11.0813 21.4151
rfemur -38.2571 -10.5294 23.2191
rtibia 29.6192
rfoot -22.7841 -20.6162
rtoes 42.0337
lfemur 7.20089 10.5698 -23.9528
ltibia 19.3625
lfoot -18.3167 -11.7797
ltoes 8.40453
249
root -15.1779 17.1316 11.4968 200.561 -68.9528 -197.946
lowerback 9.58453 -1.70964 -7.32515
upperback 3.51141 -3.10623 -0.447026
thorax -1.34264 -1.66115 3.96824
lowerneck 4.21653 -11.3804 -15.8964
upperneck 19.1737 -18.3454 10.1406
head 7.62054 -9.65686 4.54826
rclavicle 6.40087e-014 -6.95746e-015
rhumerus 3.10314 -31.293 -32.6451
rradius 71.4472
rwrist 16.0746
rhand -23.7474 -24.7575
rfingers 7.12502
rthumb 2.7213 -54.7199
lclavicle 6.40087e-014 -6.95746e-015
lhumerus -20.9415 2.18864 70.8725
lradius 42.0505
lwrist 3.32272
lhand -13.8183 -9.76573
lfingers 7.12502
lthumb 12.3043 19.8523
rfemur -37.4733 -10.2269 23.7626
rtibia 29.5052
rfoot -20.8933 -22.0613
rtoes 40.9238
lfemur 7.19433 10.2072 -23.1466
ltibia 20.8241
lfoot -18.2704 -11.3786
ltoes 6.20298
250
root -15.3275 17.1563 11.4449 199.368 -69.0965 -196.421
lowerback 9.48294 -1.83401 -6.07735
upperback 3.34437 -3.14107 -0.402889
thorax -1.52701 -1.65522 3.32072
lowerneck 4.39328 -11.3338 -15.598
upperneck 19.0775 -18.2956 10.0925
head 7.51659 -9.62734 4.51212
rclavicle 6.74377e-014 1.27222e-014
rhumerus 2.42032 -31.866 -32.5151
rradius 72.3455
rwrist 17.2327
rhand -24.9231 -24.6019
rfingers 7.12502
rthumb 1.58581 -54.5757
lclavicle 6.74377e-014 1.27222e-014
lhumerus -21.4881 2.22581 71.0645
lradius 42.2933
lwrist 2.59041
lhand -12.6985 -9.37735
lfingers 7.12502
lthumb 13.3838 20.1728
rfemur -37.3353 -10.4123 24.4324
rtibia 29.5605
rfoot -19.4619 -22.3585
rtoes 41.4416
lfemur 6.62038 9.45156 -22.6516
ltibia 22.231
lfoot -17.6082 -11.0406
ltoes 6.51491
251
root -15.4793 17.1758 11.3171 195.336 -69.3652 -192.113
lowerback 9.25885 -1.79426 -4.80683
upperback 3.3579 -2.93855 0.0860246
thorax -1.45146 -1.54907 3.08725
lowerneck 4.82166 -11.5684 -14.9362
upperneck 18.7299 -18.5871 9.81034
head 7.27875 -9.75383 4.3325
rclavicle -5.04416e-014 4.17448e-015
rhumerus 1.37098 -32.4108 -32.1696
rradius 73.5652
rwrist 18.6638
rhand -25.6474 -25.8149
rfingers 7.12502
rthumb 0.88633 -55.7928
lclavicle -5.04416e-014 4.17448e-015
lhumerus -21.9817 2.02176 71.3863
lradius 42.5761
lwrist 2.134
lhand -11.8985 -9.54465
lfingers 7.12502
lthumb 14.1548 19.9531
rfemur -36.6217 -9.23616 25.9151
rtibia 29.743
rfoot -19.5613 -23.4705
rtoes 42.1487
lfemur 6.46199 10.0349 -20.2369
ltibia 23.7236
lfoot -16.4968 -12.2427
ltoes 6.44941
